<svg xmlns="http://www.w3.org/2000/svg" xmlns:xlink="http://www.w3.org/1999/xlink" width="50" height="50" viewBox="0 0 50 50">
  <defs>
    <clipPath id="clip-Svg_Pencil_Small">
      <rect width="50" height="50"/>
    </clipPath>
  </defs>
  <g id="Svg_Pencil_Small" data-name="Svg Pencil Small" clip-path="url(#clip-Svg_Pencil_Small)">
    <rect width="50" height="50" fill="#fff"/>
    <path id="pencil-alt-solid" d="M48.647,13.945l-4.5,4.5a1.173,1.173,0,0,1-1.66,0L31.644,7.607a1.173,1.173,0,0,1,0-1.66l4.5-4.5a4.7,4.7,0,0,1,6.631,0l5.869,5.869A4.68,4.68,0,0,1,48.647,13.945ZM27.777,9.814,2.131,35.46.06,47.326a2.347,2.347,0,0,0,2.715,2.715l11.866-2.08L40.287,22.315a1.173,1.173,0,0,0,0-1.66L29.447,9.814a1.185,1.185,0,0,0-1.67,0ZM12.141,33.263a1.362,1.362,0,0,1,0-1.934l15.04-15.04a1.367,1.367,0,0,1,1.934,1.934l-15.04,15.04a1.362,1.362,0,0,1-1.934,0ZM8.616,41.476H13.3v3.545L7,46.125,3.967,43.087l1.1-6.3H8.616Z" transform="translate(50.075 -0.023) rotate(90)"/>
  </g>
</svg>
